<svg width="1211" height="910" viewBox="0 0 1211 910" fill="none" xmlns="http://www.w3.org/2000/svg">
<g clip-path="url(#clip0_0_1)">
<path d="M171.923 907C341.916 871.114 498.001 782.96 620.464 653.672L0 0V725.875L171.923 907Z" fill="url(#paint0_radial_0_1)"/>
<path d="M0 725.875C380.528 725.875 689 400.894 689 0H0V725.875Z" fill="url(#paint1_radial_0_1)"/>
<path style="mix-blend-mode:multiply" d="M0 725.875L26.5195 753.814C213.417 746.607 382.265 663.632 506.177 533.17L487.283 513.281C423.361 580.792 347.405 634.328 263.781 670.813C180.156 707.297 90.5116 726.01 0 725.875Z" fill="url(#paint2_linear_0_1)"/>
<path style="mix-blend-mode:multiply" d="M171.923 907C341.916 871.114 498.001 782.96 620.464 653.672L0 0V725.875L171.923 907Z" fill="url(#paint3_linear_0_1)"/>
<path style="mix-blend-mode:multiply" d="M620.464 653.672L0 0L564.043 707.994C583.552 690.713 602.446 672.654 620.464 653.672Z" fill="url(#paint4_linear_0_1)"/>
<path style="mix-blend-mode:screen" d="M0 0L487.206 513.281C491.541 508.692 495.82 504.049 500.043 499.352L0 0Z" fill="url(#paint5_radial_0_1)"/>
<path d="M556.406 891.043C572.564 902.787 592.397 908.35 612.306 906.722C632.215 905.094 650.881 896.382 664.916 882.168L605.5 823.5L556.406 891.043Z" fill="#4856CD"/>
<path d="M546.457 764.457C537.862 773.051 531.248 783.418 527.075 794.833C522.902 806.249 521.272 818.438 522.298 830.548C523.324 842.659 526.981 854.4 533.015 864.951C539.049 875.502 547.313 884.608 557.23 891.634L605.5 823.5L546.457 764.457Z" fill="#0183D6"/>
<path d="M664.543 882.543C672.297 874.79 678.448 865.585 682.644 855.454C686.84 845.323 689 834.465 689 823.5C689 812.535 686.84 801.677 682.644 791.546C678.448 781.415 672.297 772.21 664.543 764.457C656.79 756.703 647.585 750.552 637.454 746.356C627.323 742.16 616.465 740 605.5 740C594.535 740 583.677 742.16 573.546 746.356C563.415 750.552 554.21 756.703 546.457 764.457L605.5 823.5L664.543 882.543Z" fill="#01A6DF"/>
</g>
<path d="M792 909.9C779.433 909.9 768.413 907.387 758.94 902.36C749.66 897.333 742.41 890.277 737.19 881.19C732.163 871.91 729.65 861.18 729.65 849V805.5C729.65 793.127 732.163 782.397 737.19 773.31C742.41 764.223 749.66 757.167 758.94 752.14C768.413 747.113 779.433 744.6 792 744.6C804.567 744.6 815.49 747.113 824.77 752.14C834.243 757.167 841.493 764.223 846.52 773.31C851.74 782.397 854.35 793.127 854.35 805.5V833.63H755.17V849C755.17 861.567 758.36 871.233 764.74 878C771.12 884.573 780.207 887.86 792 887.86C802.053 887.86 810.173 886.12 816.36 882.64C822.547 878.967 826.317 873.553 827.67 866.4H853.77C852.03 879.74 845.457 890.373 834.05 898.3C822.837 906.033 808.82 909.9 792 909.9ZM828.83 816.23V805.5C828.83 792.933 825.64 783.267 819.26 776.5C813.073 769.733 803.987 766.35 792 766.35C780.207 766.35 771.12 769.733 764.74 776.5C758.36 783.267 755.17 792.933 755.17 805.5V813.91H830.86L828.83 816.23Z" fill="#62A4F7"/>
<path d="M905.567 907V747.5H931.667V777.95H937.177L931.667 784.04C931.667 771.473 935.437 761.807 942.977 755.04C950.517 748.08 960.957 744.6 974.297 744.6C990.343 744.6 1003.1 749.53 1012.58 759.39C1022.05 769.25 1026.79 782.687 1026.79 799.7V907H1000.69V802.6C1000.69 791.193 997.593 782.493 991.407 776.5C985.413 770.313 977.197 767.22 966.757 767.22C955.93 767.22 947.327 770.507 940.947 777.08C934.76 783.653 931.667 793.127 931.667 805.5V907H905.567ZM1122.08 907L1068.72 747.5H1095.4L1130.78 854.8C1132.91 861.18 1134.84 867.367 1136.58 873.36C1138.32 879.16 1139.58 883.703 1140.35 886.99C1141.32 883.703 1142.67 879.16 1144.41 873.36C1146.15 867.367 1147.99 861.18 1149.92 854.8L1184.43 747.5H1210.82L1157.46 907H1122.08Z" fill="#CDD2F8"/>
<defs>
<radialGradient id="paint0_radial_0_1" cx="0" cy="0" r="1" gradientUnits="userSpaceOnUse" gradientTransform="translate(587.35 1034.97) scale(876.205 923.099)">
<stop stop-color="#6877EC"/>
<stop offset="0.6" stop-color="#5362CF"/>
<stop offset="1" stop-color="#4352B9"/>
</radialGradient>
<radialGradient id="paint1_radial_0_1" cx="0" cy="0" r="1" gradientUnits="userSpaceOnUse" gradientTransform="translate(14.4358 -26.2545) scale(1147.58 1209)">
<stop stop-color="#00D5FF"/>
<stop offset="0.38" stop-color="#00B8EB"/>
<stop offset="1" stop-color="#0080C5"/>
</radialGradient>
<linearGradient id="paint2_linear_0_1" x1="28.472" y1="109.002" x2="367.554" y2="817.098" gradientUnits="userSpaceOnUse">
<stop stop-color="#294CA7"/>
<stop offset="0.48" stop-color="#96A7D4"/>
<stop offset="0.84" stop-color="#E1E6F3"/>
<stop offset="1" stop-color="white"/>
</linearGradient>
<linearGradient id="paint3_linear_0_1" x1="-438.133" y1="-233.698" x2="670.363" y2="998.724" gradientUnits="userSpaceOnUse">
<stop stop-color="#6877EC"/>
<stop offset="0.29" stop-color="#97A1F2"/>
<stop offset="0.77" stop-color="#E2E4FB"/>
<stop offset="1" stop-color="white"/>
</linearGradient>
<linearGradient id="paint4_linear_0_1" x1="-318.957" y1="-463.056" x2="662.485" y2="647.051" gradientUnits="userSpaceOnUse">
<stop stop-color="#8397CC"/>
<stop offset="0.15" stop-color="#97A8D4"/>
<stop offset="0.73" stop-color="#E2E6F3"/>
<stop offset="1" stop-color="white"/>
</linearGradient>
<radialGradient id="paint5_radial_0_1" cx="0" cy="0" r="1" gradientUnits="userSpaceOnUse" gradientTransform="translate(312.746 -56.2178) scale(663.172 698.665)">
<stop stop-color="white"/>
<stop offset="1"/>
</radialGradient>
<clipPath id="clip0_0_1">
<rect width="689" height="907" fill="white"/>
</clipPath>
</defs>
</svg>
